<?xml version="1.0" encoding="UTF-8" standalone="no" ?>
<!DOCTYPE svg PUBLIC "-//W3C//DTD SVG 1.1//EN" "http://www.w3.org/Graphics/SVG/1.1/DTD/svg11.dtd">
<svg xmlns="http://www.w3.org/2000/svg" xmlns:xlink="http://www.w3.org/1999/xlink" version="1.1" width="512" height="512" viewBox="0 0 512 512" xml:space="preserve">
<desc>Created with Fabric.js 3.6.3</desc>
<defs>
</defs>
<g transform="matrix(1.67 0 0 1.67 254.89 255.21)"  >
<g style=""   >
		<g transform="matrix(1.41 0 0 1.41 -2.12 -9.73)"  >
<g style=""   >
		<g transform="matrix(2.51 0 0 2.51 -3.88 -35.24)" id="Layer_1"  >
<linearGradient id="SVGID_SVGID_1__5" gradientUnits="userSpaceOnUse" gradientTransform="matrix(1 0 0 1 0 0)"  x1="93.0619" y1="86.6981" x2="114.2983" y2="86.6981">
<stop offset="0%" style="stop-color:rgb(91,154,211);stop-opacity: 1"/>
<stop offset="100%" style="stop-color:rgb(22,81,155);stop-opacity: 1"/>
</linearGradient>
<path style="stroke: rgb(0,0,0); stroke-opacity: 0.29; stroke-width: 1; stroke-dasharray: none; stroke-linecap: butt; stroke-dashoffset: 0; stroke-linejoin: miter; stroke-miterlimit: 4; fill: url(#SVGID_SVGID_1__5); fill-rule: nonzero; opacity: 1;"  transform=" translate(-103.67, -86.7)" d="M 111.89 83.7 c -1.72 -2.28 -4.37 -3.42 -7.95 -3.42 c -1.81 0 -3.39 0.34 -4.73 1.02 c -1.34 0.68 -2.45 1.59 -3.34 2.74 c -0.89 1.15 -1.57 2.51 -2.04 4.08 c -0.41 1.38 -0.67 2.84 -0.78 4.37 c 0.02 0.2 0.12 0.64 0.73 0.64 h 19.66 c 0.33 -0.03 0.85 -0.21 0.85 -1.07 C 114.25 88.56 113.45 85.77 111.89 83.7 z" stroke-linecap="round" />
</g>
		<g transform="matrix(2.51 0 0 2.51 36.39 -24.28)" id="Layer_1"  >
<linearGradient id="SVGID_SVGID_00000057133098341339519460000004378179623476908972__6" gradientUnits="userSpaceOnUse" gradientTransform="matrix(1 0 0 1 0 0)"  x1="93.0799" y1="91.064" x2="146.3307" y2="91.064">
<stop offset="0%" style="stop-color:rgb(91,154,211);stop-opacity: 1"/>
<stop offset="100%" style="stop-color:rgb(22,81,155);stop-opacity: 1"/>
</linearGradient>
<path style="stroke: rgb(0,0,0); stroke-opacity: 0.29; stroke-width: 1; stroke-dasharray: none; stroke-linecap: butt; stroke-dashoffset: 0; stroke-linejoin: miter; stroke-miterlimit: 4; fill: url(#SVGID_SVGID_00000057133098341339519460000004378179623476908972__6); fill-rule: nonzero; opacity: 1;"  transform=" translate(-119.71, -91.07)" d="M 139.28 70.94 c -8.73 -8.73 -22.57 -9.32 -32.07 -1.83 c -0.18 0.25 -0.8 1.2 0.05 1.24 c 0.05 0 0.09 0.02 0.12 0.03 c 2.91 0.23 5.51 0.77 7.74 1.7 c 3 1.25 5.46 2.97 7.39 5.18 c 1.92 2.21 3.34 4.82 4.24 7.84 c 0.91 3.02 1.36 6.3 1.36 9.85 v 2.26 c 0 1.74 -0.39 3.02 -1.16 3.85 c -0.77 0.83 -1.84 1.25 -3.2 1.25 H 94.12 c -0.89 0.07 -1.04 1.07 -1.04 1.74 c 0.1 1.47 0.33 2.85 0.7 4.12 c 0.51 1.75 1.32 3.25 2.43 4.47 c 1.11 1.23 2.55 2.16 4.3 2.8 c 1.75 0.64 3.86 0.96 6.31 0.96 c 2.49 0 4.68 -0.18 6.56 -0.54 c 1.89 -0.36 3.52 -0.75 4.9 -1.19 c 1.38 -0.43 2.52 -0.83 3.42 -1.19 c 0.91 -0.36 1.64 -0.54 2.21 -0.54 c 0.34 0 0.62 0.07 0.85 0.2 c 0.23 0.13 0.41 0.37 0.57 0.71 c 0.15 0.34 0.25 0.82 0.31 1.44 s 0.09 1.41 0.09 2.35 c 0 0.07 0 0.13 0 0.19 l 0 0 c 0 0 0.1 0.76 0.68 0.18 l 12.66 -12.66 c 0.07 -0.07 0.14 -0.14 0.2 -0.2 c 0.07 -0.07 0.1 -0.1 0.17 -0.17 C 148.68 95.52 148.63 80.29 139.28 70.94 z" stroke-linecap="round" />
</g>
		<g transform="matrix(2.51 0 0 2.51 -53.6 -28.99)" id="Layer_1"  >
<linearGradient id="SVGID_SVGID_00000083788912932138425140000009336989193237540752__7" gradientUnits="userSpaceOnUse" gradientTransform="matrix(1 0 0 1 0 0)"  x1="64.1008" y1="89.1975" x2="103.6403" y2="89.1975">
<stop offset="0%" style="stop-color:rgb(91,154,211);stop-opacity: 1"/>
<stop offset="100%" style="stop-color:rgb(22,81,155);stop-opacity: 1"/>
</linearGradient>
<path style="stroke: rgb(0,0,0); stroke-opacity: 0.29; stroke-width: 1; stroke-dasharray: none; stroke-linecap: butt; stroke-dashoffset: 0; stroke-linejoin: miter; stroke-miterlimit: 4; fill: url(#SVGID_SVGID_00000083788912932138425140000009336989193237540752__7); fill-rule: nonzero; opacity: 1;"  transform=" translate(-83.87, -89.2)" d="M 103.29 69.14 c -9.5 -7.52 -23.38 -6.93 -32.13 1.81 c -9.35 9.35 -9.42 24.6 -0.18 34.07 c 0.07 0.07 0.1 0.1 0.17 0.17 l 9.17 9.17 h 0 c 0 0 1.1 0.61 0.53 -0.96 c -0.03 -0.09 -0.05 -0.17 -0.06 -0.25 c -0.2 -0.52 -0.42 -1.03 -0.59 -1.58 c -1.11 -3.51 -1.67 -7.62 -1.67 -12.34 c 0 -4.49 0.58 -8.54 1.75 -12.14 c 1.17 -3.6 2.87 -6.66 5.09 -9.17 c 2.23 -2.51 4.93 -4.42 8.12 -5.74 c 2.78 -1.15 5.88 -1.77 9.27 -1.92 c 0.06 -0.02 0.11 -0.03 0.18 -0.04 C 104.08 70.16 103.54 69.42 103.29 69.14 z" stroke-linecap="round" />
</g>
		<g transform="matrix(2.51 0 0 2.51 -1.63 76.25)" id="Layer_1"  >
<linearGradient id="SVGID_SVGID_00000018923167136465268290000010527409344575377842__8" gradientUnits="userSpaceOnUse" gradientTransform="matrix(1 0 0 1 0 0)"  x1="91.1957" y1="131.1088" x2="117.9432" y2="131.1088">
<stop offset="0%" style="stop-color:rgb(91,154,211);stop-opacity: 1"/>
<stop offset="100%" style="stop-color:rgb(22,81,155);stop-opacity: 1"/>
</linearGradient>
<path style="stroke: rgb(0,0,0); stroke-opacity: 0.29; stroke-width: 1; stroke-dasharray: none; stroke-linecap: butt; stroke-dashoffset: 0; stroke-linejoin: miter; stroke-miterlimit: 4; fill: url(#SVGID_SVGID_00000018923167136465268290000010527409344575377842__8); fill-rule: nonzero; opacity: 1;"  transform=" translate(-104.57, -131.11)" d="M 117.19 125.81 c -0.37 0.08 -0.76 0.17 -1.16 0.24 c -0.02 0.01 -0.03 0.01 -0.03 0.01 l 0 0 c -1.08 0.22 -2.23 0.42 -3.46 0.6 c -2.19 0.32 -4.53 0.48 -7.02 0.48 c -4.49 0 -8.42 -0.57 -11.8 -1.7 c -0.53 -0.18 -1.03 -0.39 -1.53 -0.6 c -0.06 -0.01 -0.12 -0.02 -0.18 -0.05 c -1.71 -0.65 -0.21 1.05 -0.21 1.05 h 0 l 11.05 11.05 c 0 0 1.24 0.77 2.44 0.67 c 1.21 -0.1 2.71 -1.16 2.71 -1.16 l 0.83 -0.83 l 8.97 -8.97 C 118.18 125.91 117.73 125.77 117.19 125.81 z" stroke-linecap="round" />
</g>
</g>
</g>
		<g transform="matrix(1.41 0 0 1.41 -2.12 -9.74)"  >
<g style=""   >
</g>
</g>
		<g transform="matrix(1 0 0 1 -114.04 107.99)" id="Layer_1"  >
<path style="stroke: none; stroke-width: 1; stroke-dasharray: none; stroke-linecap: butt; stroke-dashoffset: 0; stroke-linejoin: miter; stroke-miterlimit: 4; fill: rgb(34,34,33); fill-rule: nonzero; opacity: 1;"  transform=" translate(-191.7, -104.63)" d="M 188.5 119.45 c 2.28 -4.91 7.19 -14.07 14.73 -27.49 l 11.12 -19.54 h 15.93 l -13.33 64.41 H 205.2 l 6.88 -30.71 c 1.16 -5.13 2.62 -11.23 4.38 -18.29 h -0.38 c -3.18 6.8 -9.34 18.26 -18.48 34.37 l -8.47 14.63 h -7.85 l -5.15 -34.8 c -0.71 -4.65 -1.33 -9.39 -1.88 -14.2 h -0.38 c -0.42 4.75 -1.25 10.38 -2.5 16.9 l -6.5 32.11 h -11.74 l 13.33 -64.41 h 15.16 l 2.89 18 c 1.19 7.51 2.42 17.18 3.71 29.03 H 188.5 z" stroke-linecap="round" />
</g>
		<g transform="matrix(1 0 0 1 -61.45 105.34)" id="Layer_1"  >
<path style="stroke: none; stroke-width: 1; stroke-dasharray: none; stroke-linecap: butt; stroke-dashoffset: 0; stroke-linejoin: miter; stroke-miterlimit: 4; fill: rgb(34,34,33); fill-rule: nonzero; opacity: 1;"  transform=" translate(-244.3, -101.98)" d="M 231.25 136.83 l 9.72 -46.64 h 11.36 l -9.72 46.64 H 231.25 z M 242.9 79.5 l 2.5 -12.37 h 11.94 l -2.5 12.37 H 242.9 z" stroke-linecap="round" />
</g>
		<g transform="matrix(1 0 0 1 -31.78 116.89)" id="Layer_1"  >
<path style="stroke: none; stroke-width: 1; stroke-dasharray: none; stroke-linecap: butt; stroke-dashoffset: 0; stroke-linejoin: miter; stroke-miterlimit: 4; fill: rgb(34,34,33); fill-rule: nonzero; opacity: 1;"  transform=" translate(-273.96, -113.52)" d="M 279.14 122.68 c 0 -0.96 -0.31 -1.75 -0.91 -2.36 c -0.61 -0.61 -1.4 -1.15 -2.36 -1.61 c -0.96 -0.46 -2.06 -0.89 -3.3 -1.28 c -1.24 -0.38 -2.48 -0.82 -3.73 -1.3 c -1.16 -0.45 -2.27 -0.98 -3.35 -1.59 c -1.08 -0.61 -2.04 -1.37 -2.89 -2.29 c -0.85 -0.91 -1.53 -2 -2.02 -3.25 c -0.5 -1.25 -0.75 -2.76 -0.75 -4.52 c 0 -2.63 0.5 -4.92 1.49 -6.86 c 0.99 -1.94 2.33 -3.55 4 -4.81 c 1.67 -1.27 3.61 -2.21 5.82 -2.84 c 2.21 -0.63 4.54 -0.94 6.98 -0.94 c 1.38 0 2.77 0.09 4.16 0.26 c 1.4 0.18 2.76 0.42 4.09 0.72 c 1.33 0.31 2.61 0.66 3.83 1.06 c 1.22 0.4 2.33 0.84 3.32 1.32 l -1.83 8.91 c -2.41 -0.99 -4.77 -1.75 -7.1 -2.26 c -2.33 -0.51 -4.52 -0.77 -6.57 -0.77 c -2.21 0 -3.92 0.45 -5.13 1.35 c -1.2 0.9 -1.81 2.07 -1.81 3.51 c 0 0.87 0.22 1.6 0.65 2.19 c 0.43 0.59 1.01 1.12 1.73 1.56 c 0.72 0.45 1.56 0.85 2.5 1.2 c 0.95 0.35 1.93 0.72 2.96 1.11 c 1.32 0.48 2.65 1.01 4 1.59 c 1.35 0.58 2.57 1.34 3.66 2.29 c 1.09 0.95 1.98 2.11 2.67 3.49 c 0.69 1.38 1.03 3.11 1.03 5.2 c 0 2.66 -0.51 5.01 -1.52 7.03 c -1.01 2.02 -2.45 3.72 -4.31 5.1 c -1.86 1.38 -4.08 2.41 -6.64 3.1 c -2.57 0.69 -5.42 1.03 -8.57 1.03 c -1.77 0 -3.43 -0.1 -5.01 -0.29 c -1.57 -0.19 -2.99 -0.43 -4.26 -0.72 c -1.27 -0.29 -2.38 -0.59 -3.32 -0.91 c -0.95 -0.32 -1.69 -0.61 -2.24 -0.87 l 1.88 -9.1 c 2.12 0.84 4.26 1.48 6.43 1.95 c 2.17 0.47 4.36 0.7 6.57 0.7 c 3.21 0 5.65 -0.54 7.32 -1.61 C 278.31 126.1 279.14 124.6 279.14 122.68 z" stroke-linecap="round" />
</g>
		<g transform="matrix(1 0 0 1 7.5 116.89)" id="Layer_1"  >
<path style="stroke: none; stroke-width: 1; stroke-dasharray: none; stroke-linecap: butt; stroke-dashoffset: 0; stroke-linejoin: miter; stroke-miterlimit: 4; fill: rgb(34,34,33); fill-rule: nonzero; opacity: 1;"  transform=" translate(-313.25, -113.52)" d="M 318.42 122.68 c 0 -0.96 -0.31 -1.75 -0.91 -2.36 c -0.61 -0.61 -1.4 -1.15 -2.36 -1.61 c -0.96 -0.46 -2.06 -0.89 -3.3 -1.28 c -1.24 -0.38 -2.48 -0.82 -3.73 -1.3 c -1.16 -0.45 -2.27 -0.98 -3.35 -1.59 c -1.08 -0.61 -2.04 -1.37 -2.89 -2.29 c -0.85 -0.91 -1.53 -2 -2.02 -3.25 c -0.5 -1.25 -0.75 -2.76 -0.75 -4.52 c 0 -2.63 0.5 -4.92 1.49 -6.86 c 0.99 -1.94 2.33 -3.55 4 -4.81 c 1.67 -1.27 3.61 -2.21 5.82 -2.84 c 2.21 -0.63 4.54 -0.94 6.98 -0.94 c 1.38 0 2.77 0.09 4.16 0.26 c 1.4 0.18 2.76 0.42 4.09 0.72 c 1.33 0.31 2.61 0.66 3.83 1.06 c 1.22 0.4 2.33 0.84 3.32 1.32 l -1.83 8.91 c -2.41 -0.99 -4.77 -1.75 -7.1 -2.26 c -2.33 -0.51 -4.52 -0.77 -6.57 -0.77 c -2.21 0 -3.92 0.45 -5.13 1.35 c -1.2 0.9 -1.81 2.07 -1.81 3.51 c 0 0.87 0.22 1.6 0.65 2.19 c 0.43 0.59 1.01 1.12 1.73 1.56 c 0.72 0.45 1.56 0.85 2.5 1.2 c 0.95 0.35 1.93 0.72 2.96 1.11 c 1.32 0.48 2.65 1.01 4 1.59 c 1.35 0.58 2.57 1.34 3.66 2.29 c 1.09 0.95 1.98 2.11 2.67 3.49 c 0.69 1.38 1.03 3.11 1.03 5.2 c 0 2.66 -0.51 5.01 -1.52 7.03 c -1.01 2.02 -2.45 3.72 -4.31 5.1 c -1.86 1.38 -4.08 2.41 -6.64 3.1 c -2.57 0.69 -5.42 1.03 -8.57 1.03 c -1.77 0 -3.43 -0.1 -5.01 -0.29 c -1.57 -0.19 -2.99 -0.43 -4.26 -0.72 c -1.27 -0.29 -2.38 -0.59 -3.32 -0.91 c -0.95 -0.32 -1.69 -0.61 -2.24 -0.87 l 1.88 -9.1 c 2.12 0.84 4.26 1.48 6.43 1.95 c 2.17 0.47 4.36 0.7 6.57 0.7 c 3.21 0 5.65 -0.54 7.32 -1.61 C 317.59 126.1 318.42 124.6 318.42 122.68 z" stroke-linecap="round" />
</g>
		<g transform="matrix(1 0 0 1 43.25 105.34)" id="Layer_1"  >
<path style="stroke: none; stroke-width: 1; stroke-dasharray: none; stroke-linecap: butt; stroke-dashoffset: 0; stroke-linejoin: miter; stroke-miterlimit: 4; fill: rgb(34,34,33); fill-rule: nonzero; opacity: 1;"  transform=" translate(-349, -101.98)" d="M 335.95 136.83 l 9.72 -46.64 h 11.36 l -9.72 46.64 H 335.95 z M 347.6 79.5 l 2.5 -12.37 h 11.94 l -2.5 12.37 H 347.6 z" stroke-linecap="round" />
</g>
		<g transform="matrix(1 0 0 1 78.27 116.9)" id="Layer_1"  >
<path style="stroke: none; stroke-width: 1; stroke-dasharray: none; stroke-linecap: butt; stroke-dashoffset: 0; stroke-linejoin: miter; stroke-miterlimit: 4; fill: rgb(34,34,33); fill-rule: nonzero; opacity: 1;"  transform=" translate(-384.02, -113.53)" d="M 388.03 89.03 c 2.76 0 5.25 0.37 7.49 1.11 c 2.23 0.74 4.14 1.84 5.73 3.3 c 1.59 1.46 2.82 3.31 3.68 5.54 c 0.87 2.23 1.3 4.82 1.3 7.77 c 0 4.11 -0.56 8.05 -1.68 11.82 c -1.12 3.77 -2.78 7.1 -4.98 9.99 c -2.2 2.89 -4.93 5.19 -8.21 6.91 c -3.27 1.72 -7.06 2.57 -11.36 2.57 c -2.73 0 -5.21 -0.37 -7.46 -1.11 c -2.25 -0.74 -4.16 -1.84 -5.75 -3.3 c -1.59 -1.46 -2.82 -3.3 -3.68 -5.51 c -0.87 -2.21 -1.3 -4.81 -1.3 -7.8 c 0 -4.11 0.56 -8.05 1.68 -11.82 c 1.12 -3.77 2.78 -7.1 4.98 -9.99 c 2.2 -2.89 4.93 -5.19 8.21 -6.91 C 379.94 89.89 383.73 89.03 388.03 89.03 z M 387.07 98.37 c -1.54 0 -2.95 0.31 -4.24 0.91 c -1.28 0.61 -2.44 1.45 -3.47 2.53 c -1.03 1.08 -1.92 2.32 -2.67 3.73 c -0.75 1.41 -1.39 2.93 -1.9 4.55 c -0.51 1.62 -0.9 3.28 -1.16 4.98 c -0.26 1.7 -0.39 3.37 -0.39 5.01 c 0 2.66 0.62 4.77 1.85 6.31 c 1.24 1.54 3.18 2.31 5.85 2.31 c 1.54 0 2.95 -0.3 4.24 -0.91 c 1.28 -0.61 2.44 -1.45 3.47 -2.53 c 1.03 -1.07 1.93 -2.32 2.7 -3.73 c 0.77 -1.41 1.4 -2.93 1.9 -4.55 c 0.5 -1.62 0.87 -3.29 1.13 -5.01 c 0.26 -1.72 0.39 -3.39 0.39 -5.03 c 0 -2.63 -0.63 -4.72 -1.88 -6.26 C 391.64 99.14 389.7 98.37 387.07 98.37 z" stroke-linecap="round" />
</g>
		<g transform="matrix(1 0 0 1 128.72 116.29)" id="Layer_1"  >
<path style="stroke: none; stroke-width: 1; stroke-dasharray: none; stroke-linecap: butt; stroke-dashoffset: 0; stroke-linejoin: miter; stroke-miterlimit: 4; fill: rgb(34,34,33); fill-rule: nonzero; opacity: 1;"  transform=" translate(-434.46, -112.93)" d="M 421.92 136.83 h -11.36 l 9.68 -46.64 h 9.68 v 5.87 h 0.19 c 0.77 -0.93 1.68 -1.82 2.72 -2.67 c 1.04 -0.85 2.19 -1.6 3.44 -2.24 c 1.25 -0.64 2.61 -1.15 4.07 -1.54 c 1.46 -0.38 2.99 -0.58 4.6 -0.58 c 1.83 0 3.55 0.26 5.17 0.79 c 1.62 0.53 3.05 1.31 4.28 2.33 c 1.24 1.03 2.21 2.28 2.91 3.75 c 0.71 1.48 1.06 3.18 1.06 5.1 c 0 1.19 -0.11 2.5 -0.34 3.95 c -0.23 1.44 -0.48 2.89 -0.77 4.33 l -5.73 27.53 h -11.36 l 5.87 -28.4 c 0.19 -0.99 0.34 -1.88 0.46 -2.67 c 0.11 -0.79 0.17 -1.45 0.17 -2 c 0 -1.64 -0.46 -2.9 -1.37 -3.8 c -0.91 -0.9 -2.32 -1.35 -4.21 -1.35 c -2.34 0 -4.52 0.64 -6.55 1.93 c -2.02 1.28 -3.71 3.02 -5.05 5.2 c -0.26 0.42 -0.51 0.87 -0.75 1.35 c -0.24 0.48 -0.47 1.03 -0.7 1.64 c -0.23 0.61 -0.44 1.31 -0.65 2.09 c -0.21 0.79 -0.43 1.71 -0.65 2.77 L 421.92 136.83 z" stroke-linecap="round" />
</g>
</g>
</g>
</svg>